# xmcd
#
# Track frame offsets: 
#        150
#        13633
#        24777
#        35962
#        46913
#        58472
#        71486
#        85588
#        97040
#        109303
#        121597
#        133722
#
# Disc length: 1929 seconds
#
# Revision: 0
# Processed by: cddbd v1.5.2PL0 Copyright (c) Steve Scherf et al.
# Submitted via: ExactAudioCopy v1.3
#
DISCID=9e07870c
DTITLE=Jim Reeves - A Touch Of Velvet
DYEAR=1962
DGENRE=Country
TTITLE0=Have You Ever Been Lonely
TTITLE1=There's Always Me
TTITLE2=Just Walking In The Rain
TTITLE3=Be Honest With Me
TTITLE4=Welcome To My World
TTITLE5=It's No Sin
TTITLE6=I Fall To Pieces
TTITLE7=Am I That Easy To Forget
TTITLE8=Blue Skies
TTITLE9=All Dressed Up And Lonely
TTITLE10=Wild Rose
TTITLE11=I'm A Fool To Care
EXTD=
EXTT0=
EXTT1=
EXTT2=
EXTT3=
EXTT4=
EXTT5=
EXTT6=
EXTT7=
EXTT8=
EXTT9=
EXTT10=
EXTT11=
PLAYORDER=
